<svg width="60" height="60" viewBox="0 0 60 60" fill="none" xmlns="http://www.w3.org/2000/svg">
<g opacity="0.6">
<path d="M7.73047 16.5925L24.4555 8.75001C26.1878 7.92747 28.0815 7.50073 29.9992 7.50073C31.9169 7.50073 33.8106 7.92747 35.543 8.75001L52.273 16.5925C55.9105 18.2975 55.9105 24.2025 52.273 25.9075L35.5455 33.75C33.8131 34.5726 31.9194 34.9993 30.0017 34.9993C28.084 34.9993 26.1903 34.5726 24.458 33.75L12.5005 28.145" stroke="black" stroke-width="3.75" stroke-linecap="round"/>
<path d="M6.25 37.5V30.345C6.25 27.145 6.25 25.545 7.075 24.295C7.9 23.0425 9.3725 22.4125 12.31 21.1525L15 20" stroke="black" stroke-width="3.75" stroke-linecap="round" stroke-linejoin="round"/>
<path d="M47.5 28.75V41.5625C47.5 44.0825 46.2425 46.4425 44.0375 47.6625C40.365 49.7 34.49 52.5 30 52.5C25.51 52.5 19.635 49.6975 15.9625 47.665C13.76 46.4425 12.5 44.0825 12.5 41.565V28.75" stroke="black" stroke-width="3.75" stroke-linecap="round"/>
</g>
</svg>
