<svg width="60" height="60" viewBox="0 0 60 60" fill="none" xmlns="http://www.w3.org/2000/svg">
<path d="M40.3326 34.2861H19.6673C17.1099 34.2861 15.0293 36.3668 15.0293 38.9241V50.1961C15.0293 52.7535 17.1099 54.8341 19.6673 54.8341H40.3326C42.89 54.8341 44.9706 52.7535 44.9706 50.1961V38.9241C44.9706 36.3668 42.89 34.2861 40.3326 34.2861ZM43.2093 50.1961C43.2093 51.7823 41.9188 53.0728 40.3326 53.0728H19.6673C18.0811 53.0728 16.7905 51.7823 16.7905 50.1961V38.9241C16.7905 37.3379 18.0811 36.0474 19.6673 36.0474H40.3326C41.9188 36.0474 43.2093 37.3379 43.2093 38.9241V50.1961Z" fill="#0276CB"/>
<path d="M25.9255 39.2404C25.5816 38.8964 25.024 38.8964 24.6802 39.2404L19.9835 43.937C19.6396 44.2809 19.6396 44.8386 19.9835 45.1824L24.6802 49.879C24.8521 50.0509 25.0775 50.137 25.3029 50.137C25.5282 50.137 25.7536 50.051 25.9255 49.879C26.2694 49.5351 26.2694 48.9775 25.9255 48.6337L21.8515 44.5597L25.9255 40.4857C26.2694 40.1419 26.2694 39.5842 25.9255 39.2404Z" fill="#0276CB"/>
<path d="M35.3197 39.2404C34.9758 38.8964 34.4181 38.8964 34.0743 39.2404C33.7304 39.5843 33.7304 40.1419 34.0743 40.4857L38.1484 44.5597L34.0743 48.6337C33.7304 48.9776 33.7304 49.5352 34.0743 49.879C34.2462 50.0509 34.4717 50.137 34.697 50.137C34.9223 50.137 35.1478 50.051 35.3197 49.879L40.0163 45.1824C40.3603 44.8384 40.3603 44.2808 40.0163 43.937L35.3197 39.2404Z" fill="#0276CB"/>
<path d="M29.9998 45.5581C29.7685 45.5581 29.5407 45.652 29.3775 45.8164C29.2131 45.9796 29.1191 46.2074 29.1191 46.4387C29.1191 46.67 29.2131 46.8978 29.3775 47.061C29.5407 47.2254 29.7685 47.3194 29.9998 47.3194C30.2311 47.3194 30.4589 47.2254 30.6221 47.061C30.7865 46.8978 30.8804 46.67 30.8804 46.4387C30.8804 46.2062 30.7865 45.9796 30.6221 45.8164C30.4589 45.652 30.2311 45.5581 29.9998 45.5581Z" fill="#0276CB"/>
<path d="M32.8181 45.5581C32.5868 45.5581 32.359 45.652 32.1958 45.8164C32.0314 45.9796 31.9375 46.2074 31.9375 46.4387C31.9375 46.67 32.0314 46.8978 32.1958 47.061C32.359 47.2254 32.5868 47.3194 32.8181 47.3194C33.0494 47.3194 33.2772 47.2254 33.4404 47.061C33.6048 46.8978 33.6988 46.67 33.6988 46.4387C33.6988 46.2074 33.6048 45.9796 33.4404 45.8164C33.2772 45.652 33.0494 45.5581 32.8181 45.5581Z" fill="#0276CB"/>
<path d="M27.1814 45.5581C26.9501 45.5581 26.7223 45.652 26.5591 45.8164C26.3947 45.9796 26.3008 46.2074 26.3008 46.4387C26.3008 46.67 26.3947 46.8978 26.5591 47.061C26.7223 47.2254 26.9501 47.3194 27.1814 47.3194C27.4127 47.3194 27.6405 47.2254 27.8037 47.061C27.9681 46.8978 28.062 46.67 28.062 46.4387C28.062 46.2074 27.9681 45.9796 27.8037 45.8164C27.6405 45.652 27.4139 45.5581 27.1814 45.5581Z" fill="#0276CB"/>
<path d="M57.958 24.3214C56.7898 22.7596 55.1731 21.5458 53.3586 20.8571C53.0822 17.707 51.6892 14.7867 49.3974 12.5788C46.9508 10.2216 43.7315 8.9236 40.3327 8.9236C39.2031 8.9236 38.082 9.06896 36.9925 9.35616C34.0474 6.65029 30.2502 5.16626 26.2427 5.16626C23.0052 5.16626 19.8902 6.13448 17.2346 7.96618C14.7942 9.64935 12.8884 11.9513 11.6967 14.648C5.09472 15.3503 0 20.9589 0 27.6516C0 30.9731 1.24568 34.1404 3.50771 36.5702C5.75777 38.9872 8.80427 40.4558 12.0861 40.7054C12.571 40.742 12.9941 40.3791 13.0309 39.894C13.0678 39.4091 12.7046 38.9861 12.2196 38.9492C9.38055 38.7333 6.74442 37.4621 4.79683 35.3701C2.83926 33.2674 1.76125 30.5262 1.76125 27.6516C1.76125 21.7009 6.41589 16.7406 12.3579 16.3589C12.6963 16.3372 12.9922 16.1231 13.1186 15.8085C14.1602 13.2165 15.9294 11.0061 18.2346 9.41593C20.5948 7.78806 23.364 6.92751 26.2427 6.92751C29.9588 6.92751 33.4719 8.36317 36.1348 10.9698C36.3652 11.1954 36.7005 11.2767 37.0088 11.1826C38.0864 10.8523 39.2048 10.6849 40.3327 10.6849C46.4165 10.6849 51.3824 15.4509 51.638 21.5352C51.6537 21.907 51.9013 22.2287 52.2565 22.3392C55.8346 23.4515 58.2387 26.7188 58.2387 30.4696C58.2387 32.5948 57.4512 34.6295 56.0213 36.1992C54.6007 37.7586 52.6677 38.7316 50.5784 38.9391C50.5094 38.946 50.443 38.9607 50.3799 38.9822H47.8471C47.3608 38.9822 46.9665 39.3765 46.9665 39.8628C46.9665 40.3492 47.3608 40.7434 47.8471 40.7434H50.6654C50.8004 40.7434 50.9284 40.713 51.0427 40.6587C53.4542 40.3497 55.6751 39.1945 57.3234 37.3852C59.0494 35.4906 60 33.0346 60 30.4696C60 28.2334 59.2939 26.1074 57.958 24.3214Z" fill="#0276CB"/>
<path d="M7.39597 21.3607C7.03433 21.0355 6.47754 21.0648 6.15229 21.4264C4.60826 23.1426 3.75781 25.3534 3.75781 27.6516C3.75781 29.4998 4.30556 31.2927 5.34177 32.836C5.51167 33.0891 5.79006 33.2258 6.07362 33.2258C6.24247 33.2258 6.41308 33.1773 6.56372 33.0762C6.96752 32.8051 7.07507 32.2581 6.80396 31.8543C5.96337 30.6022 5.51906 29.1489 5.51906 27.6516C5.51906 25.7891 6.20889 23.9967 7.46161 22.6044C7.78685 22.2429 7.7575 21.686 7.39597 21.3607Z" fill="#0276CB"/>
<path d="M32.3022 12.6394C32.4582 12.752 32.6385 12.8061 32.8171 12.8061C33.0903 12.8061 33.3596 12.6794 33.5317 12.441C33.8164 12.0468 33.7277 11.4963 33.3335 11.2115C31.2613 9.71474 28.8093 8.92358 26.2429 8.92358C25.7566 8.92358 25.3623 9.31787 25.3623 9.80421C25.3623 10.2906 25.7566 10.6848 26.2429 10.6848C28.4367 10.6848 30.5321 11.3607 32.3022 12.6394Z" fill="#0276CB"/>
<path d="M12.0556 18.3884C11.3475 18.4667 10.649 18.6265 9.97964 18.8634C9.52113 19.0257 9.28101 19.529 9.44328 19.9875C9.57115 20.3489 9.91083 20.5746 10.2734 20.5746C10.3709 20.5746 10.4701 20.5582 10.5672 20.5238C11.1093 20.332 11.6751 20.2025 12.2491 20.1391C12.7325 20.0855 13.081 19.6504 13.0275 19.167C12.9742 18.6835 12.5399 18.3354 12.0556 18.3884Z" fill="#0276CB"/>
<path d="M42.0184 14.6295C42.0838 14.6442 42.1493 14.6513 42.2136 14.6513C42.616 14.6513 42.9793 14.3737 43.0718 13.9648C43.1791 13.4904 42.8815 13.0188 42.4071 12.9115C41.7311 12.7586 41.0336 12.6812 40.3338 12.6812C39.8474 12.6812 39.4531 13.0754 39.4531 13.5618C39.4531 14.0481 39.8474 14.4424 40.3338 14.4424C40.9031 14.4424 41.4699 14.5053 42.0184 14.6295Z" fill="#0276CB"/>
<path d="M50.2311 25.5326C50.3682 25.6104 50.5174 25.6474 50.6645 25.6474C50.9713 25.6474 51.2693 25.4867 51.4314 25.2008C51.6712 24.7778 51.5227 24.2403 51.0995 24.0005C50.2305 23.5079 49.6865 22.6175 49.6446 21.6188C49.5321 18.9397 48.2792 16.4388 46.207 14.7574C45.8294 14.451 45.2747 14.5086 44.9683 14.8863C44.6619 15.2639 44.7195 15.8185 45.0973 16.125C46.7775 17.4884 47.7935 19.5177 47.885 21.6926C47.9526 23.3027 48.8296 24.7382 50.2311 25.5326Z" fill="#0276CB"/>
</svg>
