<svg width="51" height="52" viewBox="0 0 51 52" fill="none" xmlns="http://www.w3.org/2000/svg">
<g opacity="0.6">
<path d="M41.4375 8.46875H9.5625C6.92189 8.46875 4.78125 10.6094 4.78125 13.25V41.9375C4.78125 44.5781 6.92189 46.7188 9.5625 46.7188H41.4375C44.0781 46.7188 46.2188 44.5781 46.2188 41.9375V13.25C46.2188 10.6094 44.0781 8.46875 41.4375 8.46875Z" stroke="black" stroke-width="3.1875" stroke-linejoin="round"/>
<path d="M29.4844 26C30.8047 26 31.875 24.9297 31.875 23.6094C31.875 22.2891 30.8047 21.2188 29.4844 21.2188C28.1641 21.2188 27.0938 22.2891 27.0938 23.6094C27.0938 24.9297 28.1641 26 29.4844 26Z" fill="black"/>
<path d="M37.4531 26C38.7734 26 39.8438 24.9297 39.8438 23.6094C39.8438 22.2891 38.7734 21.2188 37.4531 21.2188C36.1328 21.2188 35.0625 22.2891 35.0625 23.6094C35.0625 24.9297 36.1328 26 37.4531 26Z" fill="black"/>
<path d="M29.4844 33.9688C30.8047 33.9688 31.875 32.8984 31.875 31.5781C31.875 30.2578 30.8047 29.1875 29.4844 29.1875C28.1641 29.1875 27.0938 30.2578 27.0938 31.5781C27.0938 32.8984 28.1641 33.9688 29.4844 33.9688Z" fill="black"/>
<path d="M37.4531 33.9688C38.7734 33.9688 39.8438 32.8984 39.8438 31.5781C39.8438 30.2578 38.7734 29.1875 37.4531 29.1875C36.1328 29.1875 35.0625 30.2578 35.0625 31.5781C35.0625 32.8984 36.1328 33.9688 37.4531 33.9688Z" fill="black"/>
<path d="M13.5469 33.9688C14.8672 33.9688 15.9375 32.8984 15.9375 31.5781C15.9375 30.2578 14.8672 29.1875 13.5469 29.1875C12.2266 29.1875 11.1562 30.2578 11.1562 31.5781C11.1562 32.8984 12.2266 33.9688 13.5469 33.9688Z" fill="black"/>
<path d="M21.5156 33.9688C22.8359 33.9688 23.9062 32.8984 23.9062 31.5781C23.9062 30.2578 22.8359 29.1875 21.5156 29.1875C20.1953 29.1875 19.125 30.2578 19.125 31.5781C19.125 32.8984 20.1953 33.9688 21.5156 33.9688Z" fill="black"/>
<path d="M13.5469 41.9375C14.8672 41.9375 15.9375 40.8672 15.9375 39.5469C15.9375 38.2266 14.8672 37.1562 13.5469 37.1562C12.2266 37.1562 11.1562 38.2266 11.1562 39.5469C11.1562 40.8672 12.2266 41.9375 13.5469 41.9375Z" fill="black"/>
<path d="M21.5156 41.9375C22.8359 41.9375 23.9062 40.8672 23.9062 39.5469C23.9062 38.2266 22.8359 37.1562 21.5156 37.1562C20.1953 37.1562 19.125 38.2266 19.125 39.5469C19.125 40.8672 20.1953 41.9375 21.5156 41.9375Z" fill="black"/>
<path d="M29.4844 41.9375C30.8047 41.9375 31.875 40.8672 31.875 39.5469C31.875 38.2266 30.8047 37.1562 29.4844 37.1562C28.1641 37.1562 27.0938 38.2266 27.0938 39.5469C27.0938 40.8672 28.1641 41.9375 29.4844 41.9375Z" fill="black"/>
<path d="M12.75 5.28125V8.46875M38.25 5.28125V8.46875" stroke="black" stroke-width="3.1875" stroke-linecap="round" stroke-linejoin="round"/>
<path d="M46.2188 16.4375H4.78125" stroke="black" stroke-width="3.1875" stroke-linejoin="round"/>
</g>
</svg>
