<svg width="60" height="60" viewBox="0 0 60 60" fill="none" xmlns="http://www.w3.org/2000/svg">
<path d="M28 41.0095V19.0095C28 17.3095 26.7 16.0095 25 16.0095H3C1.29996 16.0095 0 17.3095 0 19.0095V41.0095C0 42.7095 1.29996 44.0095 3 44.0095H25C26.7 44.0095 28 42.7095 28 41.0095ZM2.00004 41.0095V19.0095C2.00004 18.4095 2.4 18.0096 3 18.0096H25C25.6 18.0096 25.9999 18.4095 25.9999 19.0095V41.0095C25.9999 41.6095 25.6 42.0094 25 42.0094H3C2.4 42.0096 2.00004 41.6095 2.00004 41.0095Z" fill="#0276CB"/>
<path d="M4.99996 23.0094H14.9999C15.5999 23.0094 15.9999 22.6095 15.9999 22.0095C15.9999 21.4095 15.5999 21.0095 14.9999 21.0095H4.99996C4.39996 21.0095 4 21.4095 4 22.0095C4 22.6095 4.39996 23.0094 4.99996 23.0094Z" fill="#0276CB"/>
<path d="M18.9999 25.0093H7.99996C7.39996 25.0093 7 25.4092 7 26.0092C7 26.6092 7.39996 27.0092 7.99996 27.0092H19C19.6 27.0092 20 26.6092 20 26.0092C20 25.4092 19.5999 25.0093 18.9999 25.0093Z" fill="#0276CB"/>
<path d="M14.9999 29.009H4.99996C4.39996 29.009 4 29.409 4 30.009C4 30.609 4.39996 31.009 4.99996 31.009H14.9999C15.5999 31.009 15.9999 30.609 15.9999 30.009C15.9999 29.409 15.5999 29.009 14.9999 29.009Z" fill="#0276CB"/>
<path d="M9.99988 34.0102C9.99988 33.4102 9.59992 33.0103 8.99992 33.0103H4.99996C4.39996 33.0103 4 33.4102 4 34.0102C4 34.6102 4.39996 35.0102 4.99996 35.0102H8.99992C9.59992 35.0102 9.99988 34.6102 9.99988 34.0102Z" fill="#0276CB"/>
<path d="M15 37.01H6.99996C6.39996 37.01 6 37.41 6 38.01C6 38.61 6.39996 39.0099 6.99996 39.0099H15C15.6 39.0099 16 38.61 16 38.01C16 37.41 15.6 37.01 15 37.01Z" fill="#0276CB"/>
<path d="M57 16.01H35C33.3 16.01 32 17.31 32 19.01V41.01C32 42.71 33.3 44.01 35 44.01H57C58.7 44.01 60 42.71 60 41.01V19.01C60 17.31 58.7 16.01 57 16.01ZM57.9999 41.01C57.9999 41.61 57.6 42.0099 57 42.0099H35C34.4 42.0099 34 41.61 34 41.01V19.01C34 18.41 34.4 18.01 35 18.01H57C57.6 18.01 57.9999 18.41 57.9999 19.01V41.01Z" fill="#0276CB"/>
<path d="M37 23.0097H46.9999C47.5999 23.0097 47.9999 22.6097 47.9999 22.0097C47.9999 21.4097 47.5999 21.0098 46.9999 21.0098H37C36.4 21.0098 36 21.4097 36 22.0097C36 22.6097 36.4 23.0097 37 23.0097Z" fill="#0276CB"/>
<path d="M51 25.0095H40C39.4 25.0095 39 25.4095 39 26.0095C39 26.6095 39.4 27.0094 40 27.0094H51C51.6 27.0094 52 26.6095 52 26.0095C52 25.4095 51.6 25.0095 51 25.0095Z" fill="#0276CB"/>
<path d="M46.9999 29.009H37C36.4 29.009 36 29.409 36 30.009C36 30.609 36.4 31.009 37 31.009H46.9999C47.5999 31.009 47.9999 30.609 47.9999 30.009C47.9999 29.409 47.5999 29.009 46.9999 29.009Z" fill="#0276CB"/>
<path d="M41.9999 34.0102C41.9999 33.4102 41.5999 33.0103 40.9999 33.0103H37C36.4 33.0103 36 33.4102 36 34.0102C36 34.6102 36.4 35.0102 37 35.0102H40.9999C41.5999 35.0102 41.9999 34.6102 41.9999 34.0102Z" fill="#0276CB"/>
<path d="M47 37.01H39C38.4 37.01 38 37.41 38 38.01C38 38.61 38.4 39.0099 39 39.0099H47C47.6 39.0099 48 38.61 48 38.01C48 37.41 47.6 37.01 47 37.01Z" fill="#0276CB"/>
<path d="M14.0002 11.0094C14.1001 11.0094 14.3002 11.0094 14.4001 10.9094C20.1001 8.10943 24.6001 7.00939 30.0001 7.00939C34.678 7.00939 38.681 7.8358 43.3733 9.87685L39.0001 11.3094C38.5001 11.5094 38.2001 12.0093 38.4001 12.5094C38.5001 12.9093 38.9002 13.2093 39.3001 13.2093C39.4001 13.2093 39.5002 13.2093 39.6001 13.1094L46.076 10.983C46.4318 10.9574 46.7618 10.7554 46.9001 10.4094C46.9507 10.3081 46.9754 10.1813 46.9748 10.0547C46.9836 9.84111 46.9289 9.63041 46.8171 9.45662L44.7001 3.00943C44.5001 2.50939 44.0002 2.20939 43.5001 2.30947C43.0001 2.50951 42.7001 3.10951 42.9001 3.60943L44.3946 8.17166C39.3784 5.94885 35.0409 5.00935 30.0001 5.00935C24.3001 5.00935 19.5001 6.20935 13.6001 9.10939C13.1 9.30943 12.9001 9.90943 13.1 10.4094C13.3001 10.8094 13.6001 11.0094 14.0002 11.0094Z" fill="#0276CB"/>
<path d="M45.5998 49.1095C39.8998 51.9095 35.3998 53.0095 29.9998 53.0095C25.3506 53.0095 21.368 52.193 16.7129 50.1793L21.1998 48.7094C21.6998 48.5094 21.9998 47.9094 21.7998 47.4095C21.5998 46.9096 20.9998 46.6094 20.4998 46.8095L13.7999 49.0094C13.6886 49.0466 13.5912 49.0974 13.5074 49.157C13.3282 49.2544 13.1809 49.4068 13.0998 49.6094C12.9716 49.9301 13.0085 50.2912 13.1828 50.5622L15.2998 57.0094C15.3997 57.4093 15.7998 57.7093 16.1998 57.7093C16.3998 57.7093 16.4998 57.7093 16.6998 57.7093C17.1998 57.5093 17.4998 56.9093 17.2998 56.4094L15.8391 51.9503C20.7568 54.0992 25.0373 55.0093 29.9998 55.0093C35.6998 55.0093 40.4998 53.8093 46.3998 50.9093C46.8998 50.7092 47.0998 50.1092 46.8998 49.6093C46.6998 49.1095 46.0998 48.9096 45.5998 49.1095Z" fill="#0276CB"/>
</svg>
