<svg width="16" height="16" viewBox="0 0 16 16" fill="none" xmlns="http://www.w3.org/2000/svg">
<path d="M7.43183 4.68206C7.68516 4.22673 7.81183 4.00006 8.00116 4.00006C8.1905 4.00006 8.31716 4.22673 8.5705 4.68206L8.63583 4.79939C8.70783 4.92873 8.74383 4.99273 8.79983 5.03539C8.8565 5.07806 8.9265 5.09406 9.0665 5.12539L9.19316 5.15473C9.68516 5.26606 9.93116 5.32139 9.98983 5.50939C10.0485 5.69739 9.8805 5.89406 9.54516 6.28606L9.4585 6.38739C9.36316 6.49873 9.31516 6.55406 9.29383 6.62339C9.2725 6.69273 9.27983 6.76673 9.29383 6.91539L9.30716 7.05073C9.35783 7.57406 9.38316 7.83606 9.2305 7.95206C9.07716 8.06806 8.8465 7.96206 8.38583 7.75006L8.26716 7.69539C8.13583 7.63539 8.0705 7.60539 8.00116 7.60539C7.93183 7.60539 7.8665 7.63539 7.73516 7.69539L7.6165 7.75006C7.15583 7.96273 6.92516 8.06806 6.77183 7.95206C6.6185 7.83606 6.6445 7.57406 6.69516 7.05073L6.7085 6.91539C6.7225 6.76673 6.72983 6.69273 6.7085 6.62339C6.68716 6.55406 6.63916 6.49873 6.54383 6.38739L6.45716 6.28606C6.12183 5.89406 5.95383 5.69806 6.0125 5.50939C6.07116 5.32139 6.31716 5.26606 6.80916 5.15473L6.93583 5.12539C7.07583 5.09406 7.14583 5.07873 7.2025 5.03539C7.2585 4.99273 7.2945 4.92873 7.3665 4.79939L7.43183 4.68206Z" stroke="black" stroke-opacity="0.6"/>
<path d="M12.6673 6.00004C12.6673 6.61288 12.5466 7.21971 12.3121 7.7859C12.0776 8.35208 11.7338 8.86653 11.3005 9.29987C10.8671 9.73321 10.3527 10.077 9.78651 10.3115C9.22032 10.546 8.61349 10.6667 8.00065 10.6667C7.38782 10.6667 6.78098 10.546 6.21479 10.3115C5.64861 10.077 5.13416 9.73321 4.70082 9.29987C4.26748 8.86653 3.92374 8.35208 3.68921 7.7859C3.45469 7.21971 3.33398 6.61288 3.33398 6.00004C3.33398 4.76236 3.82565 3.57538 4.70082 2.70021C5.57599 1.82504 6.76297 1.33337 8.00065 1.33337C9.23833 1.33337 10.4253 1.82504 11.3005 2.70021C12.1757 3.57538 12.6673 4.76236 12.6673 6.00004Z" stroke="black" stroke-opacity="0.6"/>
<path d="M4.90155 10.0001L4.47688 11.5487C4.05821 13.0767 3.84888 13.8407 4.12821 14.2587C4.22621 14.4054 4.35755 14.5227 4.51021 14.6007C4.94488 14.8221 5.61688 14.4721 6.96022 13.7721C7.40688 13.5387 7.63088 13.4227 7.86821 13.3974C7.95644 13.3886 8.04532 13.3886 8.13355 13.3974C8.37088 13.4227 8.59421 13.5394 9.04155 13.7721C10.3849 14.4721 11.0569 14.8221 11.4915 14.6007C11.6442 14.5227 11.7755 14.4054 11.8735 14.2587C12.1535 13.8407 11.9435 13.0767 11.5249 11.5487L11.1002 10.0001" stroke="black" stroke-opacity="0.6" stroke-linecap="round"/>
</svg>
