<svg width="60" height="60" viewBox="0 0 60 60" fill="none" xmlns="http://www.w3.org/2000/svg">
<g opacity="0.6">
<path d="M26.25 33.75H32.45C32.8067 33.75 33.105 33.6308 33.345 33.3925C33.585 33.1542 33.7033 32.8567 33.7 32.5C33.6967 32.1433 33.5775 31.8458 33.3425 31.6075C33.1075 31.3692 32.81 31.25 32.45 31.25H26.25C25.895 31.25 25.5975 31.3692 25.3575 31.6075C25.1175 31.8458 24.9983 32.1433 25 32.5C25.0017 32.8567 25.1208 33.1542 25.3575 33.3925C25.5942 33.6308 25.8917 33.75 26.25 33.75ZM26.25 26.25H41.155C41.51 26.25 41.8067 26.1308 42.045 25.8925C42.2833 25.6542 42.4033 25.3567 42.405 25C42.4067 24.6433 42.2867 24.3458 42.045 24.1075C41.8033 23.8692 41.5067 23.75 41.155 23.75H26.25C25.895 23.75 25.5975 23.8692 25.3575 24.1075C25.1175 24.3458 24.9983 24.6433 25 25C25.0017 25.3567 25.1208 25.6542 25.3575 25.8925C25.5942 26.1308 25.8917 26.25 26.25 26.25ZM26.25 18.75H41.155C41.51 18.75 41.8067 18.6308 42.045 18.3925C42.2833 18.1542 42.4033 17.8567 42.405 17.5C42.4067 17.1433 42.2867 16.8458 42.045 16.6075C41.8033 16.3692 41.5067 16.25 41.155 16.25H26.25C25.895 16.25 25.5975 16.3692 25.3575 16.6075C25.1175 16.8458 24.9983 17.1433 25 17.5C25.0017 17.8567 25.1208 18.1542 25.3575 18.3925C25.5942 18.6308 25.8917 18.75 26.25 18.75ZM20.29 42.5C19.1383 42.5 18.1775 42.115 17.4075 41.345C16.6375 40.575 16.2517 39.6142 16.25 38.4625V11.5375C16.25 10.3875 16.6358 9.42667 17.4075 8.65501C18.1792 7.88334 19.14 7.49834 20.29 7.50001H47.2125C48.3625 7.50001 49.3233 7.88501 50.095 8.65501C50.8667 9.42501 51.2517 10.3858 51.25 11.5375V38.4625C51.25 39.6125 50.865 40.5725 50.095 41.3425C49.325 42.1125 48.3633 42.4983 47.21 42.5H20.29ZM20.29 40H47.2125C47.5958 40 47.9483 39.84 48.27 39.52C48.5917 39.2 48.7517 38.8475 48.75 38.4625V11.5375C48.75 11.1542 48.59 10.8017 48.27 10.48C47.95 10.1583 47.5967 9.99834 47.21 10H20.29C19.905 10 19.5517 10.16 19.23 10.48C18.9083 10.8 18.7483 11.1525 18.75 11.5375V38.4625C18.75 38.8458 18.91 39.1983 19.23 39.52C19.55 39.8417 19.9025 40.0017 20.2875 40M12.7875 50C11.6375 50 10.6767 49.615 9.90501 48.845C9.13334 48.075 8.74834 47.1142 8.75001 45.9625V17.7875C8.75001 17.4325 8.86917 17.1358 9.10751 16.8975C9.34584 16.6592 9.64334 16.54 10 16.54C10.3567 16.54 10.6542 16.6592 10.8925 16.8975C11.1308 17.1358 11.25 17.4333 11.25 17.79V45.9625C11.25 46.3458 11.41 46.6983 11.73 47.02C12.05 47.3417 12.4025 47.5017 12.7875 47.5H40.9625C41.3175 47.5 41.6142 47.6192 41.8525 47.8575C42.0908 48.0958 42.2108 48.3933 42.2125 48.75C42.2142 49.1067 42.0942 49.4042 41.8525 49.6425C41.6108 49.8808 41.3142 50 40.9625 50H12.7875Z" fill="black"/>
</g>
</svg>
