<svg width="60" height="60" viewBox="0 0 60 60" fill="none" xmlns="http://www.w3.org/2000/svg">
<path d="M53.2249 41.0187L54.7479 38.3801C55.0683 37.8292 54.9273 37.1374 54.4404 36.7401L49.0335 32.4992C49.136 31.6792 49.2129 30.8465 49.2129 30.0007C49.2129 29.155 49.136 28.3224 49.0335 27.5022L54.4533 23.2614C54.9401 22.877 55.081 22.1851 54.7608 21.6214L49.6358 12.7422C49.3154 12.1914 48.6493 11.9606 48.0726 12.1914L41.692 14.7667C40.3723 13.7545 38.9245 12.8961 37.3614 12.2426L36.4004 5.45198C36.2851 4.84986 35.7598 4.37573 35.1191 4.37573H24.8691C24.2285 4.37573 23.7033 4.84973 23.6008 5.45198L22.6398 12.2426C21.0909 12.8886 19.6346 13.7374 18.3091 14.7667L11.9285 12.1914C11.3429 11.9679 10.6815 12.201 10.3654 12.7422L5.24039 21.6214C4.92001 22.1722 5.06101 22.8641 5.54789 23.2614L10.9548 27.5022C10.8431 28.3305 10.7833 29.165 10.7754 30.0007C10.7754 30.8464 10.8523 31.6791 10.9548 32.4992L5.54789 36.7401C5.06101 37.1245 4.92001 37.8164 5.24039 38.3801L10.3654 47.2592C10.6856 47.8101 11.352 48.0407 11.9285 47.8101L18.3091 45.2347C19.6289 46.2469 21.0766 47.1054 22.6398 47.7589L23.6008 54.5495C23.7033 55.1516 24.2285 55.6257 24.8691 55.6257H35.1191C35.7598 55.6257 36.285 55.1516 36.3875 54.5495L37.3485 47.7589C38.086 47.4512 38.8026 47.0976 39.494 46.7005" stroke="#0276CB" stroke-width="1.25" stroke-linecap="round" stroke-linejoin="round"/>
<path d="M29.9941 41.5804C36.3895 41.5804 41.5741 36.3959 41.5741 30.0004C41.5741 23.605 36.3895 18.4204 29.9941 18.4204C23.5986 18.4204 18.4141 23.605 18.4141 30.0004C18.4141 36.3959 23.5986 41.5804 29.9941 41.5804Z" stroke="#0276CB" stroke-width="1.25" stroke-linecap="round" stroke-linejoin="round"/>
<path d="M29.9941 18.4204H52.6688" stroke="#0276CB" stroke-width="1.25" stroke-linecap="round" stroke-linejoin="round"/>
<path d="M38.7647 37.5703L23.9492 55.2267" stroke="#0276CB" stroke-width="1.25" stroke-linecap="round" stroke-linejoin="round"/>
<path d="M10.9551 27.5024L20.3187 36.3654" stroke="#0276CB" stroke-width="1.25" stroke-linecap="round" stroke-linejoin="round"/>
<path d="M49.2148 48.125C50.5956 48.125 51.7148 49.2442 51.7148 50.625C51.7148 52.0057 50.5956 53.125 49.2148 53.125H45.0898V43.125H49.2148C50.5956 43.125 51.7148 44.2442 51.7148 45.625C51.7148 47.0057 50.5956 48.125 49.2148 48.125Z" stroke="#0276CB" stroke-width="1.08275" stroke-linecap="round" stroke-linejoin="round"/>
<path d="M49.2148 48.125H45.0898" stroke="#0276CB" stroke-width="1.08275" stroke-linecap="round" stroke-linejoin="round"/>
<path d="M48.125 56.875C52.9575 56.875 56.875 52.9575 56.875 48.125C56.875 43.2925 52.9575 39.375 48.125 39.375C43.2925 39.375 39.375 43.2925 39.375 48.125C39.375 52.9575 43.2925 56.875 48.125 56.875Z" stroke="#0276CB" stroke-width="1.25" stroke-linecap="round" stroke-linejoin="round"/>
</svg>
