<svg width="60" height="60" viewBox="0 0 60 60" fill="none" xmlns="http://www.w3.org/2000/svg">
<g opacity="0.6">
<path d="M39.375 5.68311L38.145 7.03123C35.3906 10.0631 33.12 11.4187 31.23 12.3056C29.34 13.1906 27.7519 13.455 26.1919 14.6494C24.5287 15.9244 22.1119 18.3694 21.0938 22.7344C18.9113 23.2106 17.3138 24.0469 16.0538 25.1362C14.8088 26.2125 13.8713 27.4369 12.7162 28.77C12.7069 28.785 12.7219 28.8131 12.7162 28.8281C11.0588 30.7331 9.60938 32.7844 6.79688 33.8681L5.625 34.3369V54.375H41.3681C43.4175 54.2644 44.8387 52.845 45.7031 51.4444C46.5656 50.0456 47.0438 48.5306 47.2856 47.2856C47.9081 44.1131 49.0425 34.98 49.0425 34.98L49.1025 34.8056V34.6294C49.0425 33.3619 48.5213 32.2856 47.8706 31.2881L49.98 25.02L53.3213 19.98L54.2588 18.6319L53.0269 17.52L40.7231 6.85498L39.375 5.68311ZM39.4931 10.8394L49.2769 19.3369L46.6987 23.1431L46.5244 23.3212L46.4644 23.6137L44.7656 28.6519C43.8787 28.2862 42.9656 28.0294 41.9531 28.0669H41.835L30 28.125H28.125V35.3906C27.8625 37.4344 26.7262 38.2256 25.3125 38.79C24.8438 38.9794 24.7856 38.8762 24.375 38.9644V28.0687C24.0675 21.1181 26.5425 19.1175 28.4775 17.6381C29.0119 17.2275 30.5775 16.7531 32.8125 15.705C34.68 14.8256 37.0012 13.2487 39.4931 10.8394ZM20.7431 26.9531C20.7356 27.3787 20.6025 27.6787 20.625 28.125V43.125H22.5C22.5 43.125 24.5063 43.1025 26.6606 42.2456C28.815 41.3887 31.4137 39.3825 31.875 35.8594V31.875L41.9531 31.8169H42.0112C42.8346 31.7708 43.6425 32.0533 44.2578 32.6024C44.873 33.1515 45.2451 33.9223 45.2925 34.7456C45.285 34.7756 45.1987 35.4712 45.1763 35.625H37.5V39.375H44.7075C44.5088 40.8244 44.3269 41.7337 44.1206 43.125H37.5V46.875H43.5356C43.3141 47.7821 42.9583 48.6511 42.48 49.4531C41.9681 50.2875 41.5275 50.6025 41.1338 50.625H9.375V36.6206C12.4144 35.0081 14.3044 32.6887 15.5269 31.29C16.7944 29.8387 17.6644 28.74 18.5156 28.0087C19.0725 27.5325 19.9444 27.2606 20.7431 26.9531Z" fill="black"/>
</g>
</svg>
