<svg width="16" height="16" viewBox="0 0 16 16" fill="none" xmlns="http://www.w3.org/2000/svg">
<path d="M14.1187 3.64436L8.11875 1.64436C8.04167 1.61863 7.95833 1.61863 7.88125 1.64436L1.88125 3.64436C1.80664 3.66927 1.74174 3.71701 1.69576 3.78083C1.64977 3.84466 1.62502 3.92132 1.625 3.99998V8.99998C1.625 9.09944 1.66451 9.19482 1.73483 9.26515C1.80516 9.33548 1.90054 9.37498 2 9.37498C2.09946 9.37498 2.19484 9.33548 2.26517 9.26515C2.33549 9.19482 2.375 9.09944 2.375 8.99998V4.51998L4.7925 5.32623C4.48764 5.77677 4.28106 6.28645 4.18619 6.8221C4.09133 7.35775 4.11031 7.90737 4.2419 8.4352C4.37349 8.96303 4.61474 9.45724 4.94995 9.88567C5.28516 10.3141 5.70682 10.6672 6.1875 10.9219C4.98438 11.33 3.9375 12.1462 3.1875 13.2969C3.14439 13.3794 3.13355 13.4751 3.1571 13.5652C3.18065 13.6553 3.23689 13.7335 3.31489 13.7844C3.39288 13.8353 3.48704 13.8554 3.57902 13.8407C3.67101 13.8261 3.75423 13.7777 3.8125 13.705C4.77938 12.2244 6.305 11.375 8 11.375C9.695 11.375 11.2206 12.2244 12.1875 13.705C12.2454 13.7792 12.3291 13.8289 12.422 13.8443C12.5149 13.8596 12.6101 13.8395 12.6888 13.7879C12.7676 13.7362 12.824 13.6569 12.8469 13.5656C12.8698 13.4742 12.8575 13.3777 12.8125 13.295C12.0625 12.1462 11.0169 11.33 9.8125 10.92C10.2929 10.665 10.7143 10.3117 11.0492 9.88319C11.3841 9.45463 11.625 8.96037 11.7563 8.43257C11.8876 7.90476 11.9063 7.35523 11.8112 6.81971C11.7161 6.2842 11.5094 5.7747 11.2044 5.32436L14.1187 4.35561C14.1933 4.33066 14.2582 4.2829 14.3041 4.21908C14.3501 4.15527 14.3748 4.07862 14.3748 3.99998C14.3748 3.92135 14.3501 3.8447 14.3041 3.78089C14.2582 3.71707 14.1933 3.66931 14.1187 3.64436ZM11.125 7.49998C11.1252 7.99794 11.0064 8.48874 10.7786 8.93149C10.5507 9.37424 10.2203 9.75613 9.81491 10.0453C9.40954 10.3345 8.94093 10.5227 8.44812 10.5941C7.95531 10.6655 7.45257 10.6181 6.98179 10.4558C6.51101 10.2936 6.08581 10.0212 5.74163 9.66132C5.39745 9.30146 5.14425 8.86456 5.00313 8.38702C4.862 7.90948 4.83704 7.40513 4.93032 6.91599C5.02359 6.42684 5.23241 5.96708 5.53937 5.57498L7.88125 6.35561C7.95833 6.38134 8.04167 6.38134 8.11875 6.35561L10.4606 5.57498C10.8918 6.12395 11.1258 6.80196 11.125 7.49998ZM8 5.60498L3.1875 3.99998L8 2.39498L12.8125 3.99998L8 5.60498Z" fill="black" fill-opacity="0.6"/>
</svg>
